<svg xmlns="http://www.w3.org/2000/svg" style="display:none;">


    <symbol id="fb_header"  width="24" height="24" viewBox="0 0 24 24" fill="currentcolor">
     <path d="M24 12.5733C24 5.90541 18.6274 0.5 12 0.5C5.37258 0.5 0 5.90541 0 12.5733C0 18.5995 4.38823 23.5943 10.125 24.5V16.0633H7.07813V12.5733H10.125V9.91343C10.125 6.88755 11.9165 5.21615 14.6576 5.21615C15.9705 5.21615 17.3438 5.45195 17.3438 5.45195V8.42313H15.8306C14.3399 8.42313 13.875 9.35379 13.875 10.3086V12.5733H17.2031L16.6711 16.0633H13.875V24.5C19.6118 23.5943 24 18.5995 24 12.5733Z"/>
    </symbol>

    <symbol id="fb_footer" width="38" height="38" viewBox="0 0 38 38" fill="currentcolor">
        <path d="M38 19.1161C38 8.55857 29.4934 0 19 0C8.50658 0 0 8.55857 0 19.1161C0 28.6575 6.94803 36.5659 16.0312 38V24.6419H11.207V19.1161H16.0312V14.9046C16.0312 10.1136 18.8678 7.46723 23.2078 7.46723C25.2866 7.46723 27.4609 7.84059 27.4609 7.84059V12.545H25.0651C22.7048 12.545 21.9688 14.0185 21.9688 15.5302V19.1161H27.2383L26.3959 24.6419H21.9688V38C31.052 36.5659 38 28.6575 38 19.1161Z"/>
    </symbol>

    <symbol id="flag" width="32" height="32" viewBox="0 0 32 32" fill="none">
    <path d="M23.1137 4.3054C22.9447 4.1374 22.7457 4.0529 22.5157 4.0529C22.4012 4.0529 22.1597 4.1469 21.7927 4.3324C21.4252 4.5184 21.0352 4.7254 20.6247 4.9564C20.2132 5.1859 19.7262 5.3939 19.1642 5.5799C18.6027 5.7654 18.0827 5.8594 17.6042 5.8594C17.1622 5.8594 16.7722 5.7754 16.4362 5.6069C15.3217 5.0849 14.3522 4.6954 13.5292 4.4384C12.7062 4.1819 11.8212 4.0529 10.8737 4.0529C9.23774 4.0529 7.37424 4.5849 5.28524 5.6469C4.85424 5.8619 4.54524 6.0284 4.34524 6.1504L4.14674 4.6949C4.59524 4.3054 4.88474 3.7379 4.88474 3.0974C4.88474 1.9239 3.93374 0.9729 2.76024 0.9729C1.58674 0.9729 0.635742 1.9239 0.635742 3.0974C0.635742 3.8629 1.04474 4.5284 1.65174 4.9024L4.52174 25.9474C4.60724 26.5739 5.14324 27.0284 5.75874 27.0284C5.81474 27.0284 5.87174 27.0249 5.92924 27.0174C6.61324 26.9234 7.09224 26.2939 6.99874 25.6099L5.84524 17.1514C7.93824 16.1129 9.74874 15.5894 11.2717 15.5894C11.9182 15.5894 12.5487 15.6859 13.1632 15.8809C13.7782 16.0764 14.2897 16.2884 14.6967 16.5179C15.1037 16.7479 15.5842 16.9609 16.1367 17.1549C16.6902 17.3499 17.2367 17.4474 17.7762 17.4474C19.1392 17.4474 20.7717 16.9339 22.6742 15.9074C22.9132 15.7834 23.0882 15.6614 23.1987 15.5419C23.3092 15.4224 23.3647 15.2524 23.3647 15.0314V4.9029C23.3647 4.6734 23.2812 4.4739 23.1137 4.3054Z" fill="#F0145A"/>
    </symbol>

    <symbol id="bag" width="32" height="32" viewBox="0 0 32 32" fill="none">
    <path d="M17.232 18.332V17.774C17.232 17.0935 16.6805 16.542 16.0005 16.542C15.32 16.542 14.7685 17.0935 14.7685 17.774V18.332C14.7685 19.0125 15.32 19.564 16.0005 19.564C16.68 19.564 17.232 19.0125 17.232 18.332Z" fill="#F0145A"/>
    <path d="M18.077 19.0136C17.804 19.9071 16.9815 20.5631 16.0005 20.5631C15.019 20.5631 14.1965 19.9071 13.9235 19.0136H5.43898C4.90348 19.0136 4.39748 18.8891 3.94348 18.6731V24.3066C3.94348 25.4066 4.84348 26.3066 5.94348 26.3066H26.0565C27.1565 26.3066 28.0565 25.4066 28.0565 24.3066V18.6736C27.602 18.8896 27.0965 19.0141 26.561 19.0141H18.077V19.0136Z" fill="#F0145A"/>
    <path d="M26.4775 8.8976H21.677C21.387 7.0846 19.8165 5.6936 17.923 5.6936H14.0765C12.183 5.6936 10.613 7.0846 10.3225 8.8976H5.5225C4.3765 8.8976 3.439 9.7976 3.439 10.8976V15.5141C3.439 16.6186 4.3345 17.5141 5.439 17.5141H13.829C13.8575 16.9386 14.1045 16.4216 14.495 16.0476C14.507 16.0361 14.521 16.0271 14.5335 16.0161C14.62 15.9366 14.71 15.8616 14.8085 15.7966C14.8435 15.7731 14.8835 15.7571 14.92 15.7361C15.001 15.6896 15.081 15.6411 15.1685 15.6051C15.237 15.5766 15.311 15.5601 15.383 15.5386C15.445 15.5201 15.504 15.4956 15.5685 15.4826C15.708 15.4541 15.8525 15.4391 16 15.4391C16.148 15.4391 16.292 15.4546 16.4315 15.4826C16.4955 15.4956 16.5545 15.5201 16.6165 15.5386C16.6885 15.5601 16.7625 15.5766 16.831 15.6056C16.918 15.6416 16.9975 15.6896 17.0785 15.7361C17.1155 15.7576 17.1555 15.7736 17.191 15.7971C17.2895 15.8616 17.379 15.9366 17.4655 16.0161C17.478 16.0276 17.4925 16.0366 17.5045 16.0486C17.8955 16.4226 18.142 16.9396 18.1705 17.5151H26.5605C27.665 17.5151 28.5605 16.6196 28.5605 15.5151V10.8986C28.561 9.7976 27.6235 8.8976 26.4775 8.8976ZM12.248 8.8976C12.503 8.1271 13.2215 7.5656 14.0765 7.5656H17.923C18.778 7.5656 19.4965 8.1271 19.7515 8.8976H12.248Z" fill="#F0145A"/>
    </symbol>


    <symbol id="star" width="32" height="32" viewBox="0 0 32 32" fill="none">
    <path d="M16.097 3.55298C9.25249 3.55298 3.68399 9.12148 3.68399 15.966C3.68399 22.811 9.25249 28.38 16.097 28.38C22.9415 28.38 28.51 22.811 28.51 15.966C28.5105 9.12148 22.942 3.55298 16.097 3.55298ZM22.9555 15.0585V15.059L19.362 17.659L20.746 21.889C20.768 21.955 20.7795 22.0255 20.7795 22.0975C20.7795 22.467 20.4805 22.767 20.111 22.767C19.964 22.767 19.829 22.72 19.719 22.6405L16.0975 20.021L12.476 22.6405C12.366 22.72 12.231 22.767 12.0845 22.767C11.7145 22.767 11.415 22.4675 11.415 22.0975C11.415 22.025 11.427 21.955 11.449 21.889L12.8335 17.659L9.23999 15.059V15.0585C9.07199 14.9375 8.96299 14.74 8.96299 14.517C8.96299 14.1475 9.26199 13.8485 9.63199 13.8485H14.0805L15.458 9.63798C15.542 9.36448 15.7965 9.16548 16.098 9.16548C16.399 9.16548 16.654 9.36448 16.7375 9.63798L18.115 13.8485H22.5635C22.933 13.8485 23.2325 14.1475 23.2325 14.517C23.232 14.74 23.123 14.9375 22.9555 15.0585Z" fill="#F0145A"/> 
    </symbol>

     <symbol id="logo-header-mobile" width="70" height="33" viewBox="0 0 70 33" fill="none" xmlns="http://www.w3.org/2000/svg">
    <path d="M2.64358 0H0V19.0926H2.64358V12.0094C2.64358 10.8111 2.94163 9.86583 3.53774 9.20012C4.13384 8.53441 4.95024 8.18824 5.96102 8.18824C6.82926 8.18824 7.55495 8.50778 8.13809 9.12024C8.72123 9.74601 9.01929 10.5315 9.01929 11.4769V19.1059H11.6758V11.4769C11.6758 9.71938 11.1964 8.3347 10.2374 7.29619C9.27846 6.25768 8.02146 5.73843 6.49233 5.73843C6.05173 5.73843 5.61114 5.79168 5.1835 5.91151C4.7429 6.03134 4.39301 6.16448 4.10792 6.31094C3.82283 6.45739 3.5507 6.61717 3.30448 6.80356C3.05826 6.98996 2.8898 7.12311 2.81205 7.20299C2.73429 7.28288 2.6695 7.33613 2.64358 7.37608V0Z" fill="#F0145A"/>
<path d="M17.5856 0H14.8604V19.0767H17.5856V0Z" fill="#323264"/>
<path d="M33.6598 13.4899L33.796 12.1272C33.796 10.3013 33.1965 8.77518 31.9701 7.54882C30.7438 6.32245 29.2176 5.7229 27.3917 5.7229C25.5658 5.7229 23.9851 6.37696 22.677 7.68508C21.3689 8.9932 20.7148 10.5466 20.7148 12.3998C20.7148 14.3074 21.3962 15.9426 22.7315 17.3052C24.0669 18.6678 25.6748 19.3491 27.528 19.3491C28.2365 19.3491 28.8906 19.2401 29.5446 19.0494C30.1987 18.8313 30.7438 18.6133 31.1253 18.3953C31.5341 18.15 31.9429 17.8775 32.2971 17.5777C32.6514 17.278 32.8967 17.0599 33.0057 16.9237C33.1147 16.7874 33.1965 16.7056 33.251 16.6239L31.4796 14.8525L31.0708 15.3703C30.7983 15.6973 30.335 16.0243 29.6809 16.3786C28.9996 16.7329 28.291 16.8964 27.528 16.8964C26.4651 16.8964 25.5658 16.5694 24.8027 15.8881C24.0396 15.2068 23.5764 14.4164 23.4401 13.4899H33.6598ZM27.3917 8.03936C28.4 8.03936 29.2176 8.33914 29.8989 8.91144C30.553 9.511 30.9618 10.2468 31.1253 11.1734H23.5491C23.7944 10.2468 24.2304 9.511 24.9117 8.91144C25.5658 8.33914 26.4106 8.03936 27.3917 8.03936Z" fill="#323264"/>
<path d="M46.3695 18.2863C46.3695 19.4854 46.0153 20.4665 45.2794 21.2296C44.5709 21.9654 43.6715 22.3469 42.5542 22.3469C42.0637 22.3469 41.5731 22.2651 41.1098 22.1289C40.6465 21.9926 40.2922 21.8291 39.9925 21.6383C39.6927 21.4476 39.4202 21.2568 39.1476 21.0115C38.9024 20.7663 38.7389 20.6027 38.6571 20.521C38.5753 20.4392 38.5208 20.3575 38.4663 20.303L36.6949 22.0744L36.9129 22.3469C37.0492 22.5377 37.2945 22.7829 37.6215 23.0555C37.9485 23.3007 38.3301 23.5733 38.7661 23.8458C39.2021 24.0911 39.7472 24.3091 40.4285 24.4998C41.1098 24.6906 41.8184 24.7996 42.5542 24.7996C44.4074 24.7996 45.9335 24.1728 47.2144 22.9192C48.468 21.6383 49.0948 20.1122 49.0948 18.259V5.99543H46.3695V7.35805L45.9062 6.94926C45.6065 6.67674 45.1432 6.40421 44.4891 6.13169C43.8351 5.85916 43.1265 5.7229 42.4179 5.7229C40.7555 5.7229 39.3384 6.34971 38.112 7.63057C36.8857 8.91144 36.2861 10.4376 36.2861 12.2635C36.2861 14.0894 36.8857 15.6155 38.112 16.8964C39.3384 18.1773 40.7555 18.8041 42.4179 18.8041C42.8812 18.8041 43.3173 18.7496 43.7806 18.6406C44.2166 18.5043 44.5709 18.368 44.8707 18.2318C45.1704 18.0955 45.443 17.932 45.6882 17.7412C45.9335 17.5505 46.1243 17.4142 46.1788 17.3597L46.3695 17.1689V18.2863ZM39.0114 12.2635C39.0114 11.1189 39.3657 10.1651 40.1015 9.37473C40.8373 8.58441 41.7094 8.17562 42.6905 8.17562C43.6715 8.17562 44.5436 8.58441 45.2794 9.37473C45.988 10.1651 46.3695 11.1189 46.3695 12.2635C46.3695 13.4081 45.988 14.3619 45.2794 15.1523C44.5436 15.9426 43.6715 16.3514 42.6905 16.3514C41.7094 16.3514 40.8373 15.9426 40.1015 15.1523C39.3657 14.3619 39.0114 13.4081 39.0114 12.2635Z" fill="#323264"/>
<path d="M63.3195 19.0766V10.6283C63.3195 9.23847 62.8017 8.06661 61.7934 7.14003C60.7851 6.18619 59.4769 5.7229 57.869 5.7229C57.2422 5.7229 56.6154 5.80466 56.0159 5.96817C55.4163 6.15894 54.9258 6.34971 54.5715 6.56773C54.2172 6.78575 53.8629 7.03102 53.5359 7.3308C53.2089 7.60332 53.0181 7.79409 52.9091 7.9031C52.8273 8.01211 52.7456 8.09387 52.6911 8.17562L54.4625 9.94703L54.8168 9.48374C55.0348 9.18397 55.4163 8.91144 55.9886 8.61166C56.5609 8.31189 57.1877 8.17562 57.869 8.17562C58.6594 8.17562 59.3134 8.4209 59.8312 8.88419C60.349 9.34748 60.5943 9.94703 60.5943 10.6283L55.8251 11.4459C54.6533 11.6367 53.6994 12.1 53.0454 12.8358C52.364 13.5716 52.0098 14.4709 52.0098 15.5338C52.0098 16.5421 52.4458 17.4142 53.3179 18.1773C54.2172 18.9676 55.3073 19.3491 56.6427 19.3491C57.106 19.3491 57.542 19.2946 57.9781 19.1584C58.4413 19.0494 58.7956 18.9131 59.0954 18.7768C59.3952 18.6406 59.6677 18.4771 59.913 18.2863C60.1582 18.0955 60.3218 17.9593 60.4308 17.9048C60.5125 17.823 60.567 17.7412 60.5943 17.714V19.0766H63.3195ZM57.0515 16.8964C56.3429 16.8964 55.7706 16.7329 55.3618 16.4059C54.9258 16.0788 54.735 15.6973 54.735 15.2613C54.735 14.798 54.8713 14.3892 55.1711 14.0894C55.4708 13.7896 55.8796 13.5716 56.3702 13.4899L60.5943 12.8085V13.0811C60.5943 14.3074 60.2945 15.234 59.6677 15.9153C59.0409 16.5694 58.1688 16.8964 57.0515 16.8964Z" fill="#323264"/>
<path d="M69.3337 0H66.6084V19.0767H69.3337V0Z" fill="#323264"/>
<path d="M0 28.3298H0.852878V31.3201H2.70078V32.0151H0V28.3298Z" fill="#323264"/>
<path d="M8.26752 31.2254H6.5565L6.23009 32.0151H5.35615L6.99873 28.3298H7.84108L9.48893 32.0151H8.59393L8.26752 31.2254ZM7.99902 30.5778L7.41464 29.1669L6.83026 30.5778H7.99902Z" fill="#323264"/>
<path d="M17.8731 28.3298L16.6675 32.0151H15.7515L14.9407 29.5196L14.1036 32.0151H13.1928L11.982 28.3298H12.8664L13.6982 30.92L14.5669 28.3298H15.3566L16.199 30.9411L17.0571 28.3298H17.8731Z" fill="#323264"/>
<path d="M26.9457 32.0782C26.5702 32.0782 26.2297 31.9975 25.9244 31.8361C25.6225 31.6711 25.3838 31.4447 25.2084 31.1569C25.0364 30.8656 24.9504 30.5374 24.9504 30.1724C24.9504 29.8074 25.0364 29.481 25.2084 29.1932C25.3838 28.9019 25.6225 28.6755 25.9244 28.514C26.2297 28.3491 26.5719 28.2666 26.951 28.2666C27.2704 28.2666 27.5582 28.3228 27.8144 28.4351C28.0741 28.5474 28.2917 28.7088 28.4672 28.9194L27.9197 29.4248C27.6705 29.137 27.3616 28.9931 26.9931 28.9931C26.7649 28.9931 26.5614 29.044 26.3824 29.1458C26.2034 29.2441 26.063 29.3827 25.9612 29.5617C25.8629 29.7407 25.8138 29.9443 25.8138 30.1724C25.8138 30.4006 25.8629 30.6041 25.9612 30.7831C26.063 30.9621 26.2034 31.1025 26.3824 31.2043C26.5614 31.3026 26.7649 31.3517 26.9931 31.3517C27.3616 31.3517 27.6705 31.206 27.9197 30.9147L28.4672 31.4201C28.2917 31.6342 28.0741 31.7974 27.8144 31.9098C27.5547 32.0221 27.2651 32.0782 26.9457 32.0782Z" fill="#323264"/>
<path d="M33.3831 32.0782C33.0005 32.0782 32.6548 31.9958 32.3459 31.8308C32.0406 31.6658 31.8002 31.4395 31.6247 31.1516C31.4527 30.8603 31.3667 30.5339 31.3667 30.1724C31.3667 29.8109 31.4527 29.4863 31.6247 29.1985C31.8002 28.9071 32.0406 28.679 32.3459 28.514C32.6548 28.3491 33.0005 28.2666 33.3831 28.2666C33.7657 28.2666 34.1096 28.3491 34.415 28.514C34.7203 28.679 34.9607 28.9071 35.1362 29.1985C35.3117 29.4863 35.3995 29.8109 35.3995 30.1724C35.3995 30.5339 35.3117 30.8603 35.1362 31.1516C34.9607 31.4395 34.7203 31.6658 34.415 31.8308C34.1096 31.9958 33.7657 32.0782 33.3831 32.0782ZM33.3831 31.3517C33.6007 31.3517 33.7972 31.3026 33.9727 31.2043C34.1482 31.1025 34.2851 30.9621 34.3834 30.7831C34.4852 30.6041 34.5361 30.4006 34.5361 30.1724C34.5361 29.9443 34.4852 29.7407 34.3834 29.5617C34.2851 29.3827 34.1482 29.2441 33.9727 29.1458C33.7972 29.044 33.6007 28.9931 33.3831 28.9931C33.1655 28.9931 32.9689 29.044 32.7934 29.1458C32.618 29.2441 32.4793 29.3827 32.3775 29.5617C32.2793 29.7407 32.2301 29.9443 32.2301 30.1724C32.2301 30.4006 32.2793 30.6041 32.3775 30.7831C32.4793 30.9621 32.618 31.1025 32.7934 31.2043C32.9689 31.3026 33.1655 31.3517 33.3831 31.3517Z" fill="#323264"/>
<path d="M42.0264 32.0151L42.0211 29.8039L40.9366 31.6255H40.5523L39.473 29.8513V32.0151H38.6728V28.3298H39.3782L40.7576 30.6199L42.1159 28.3298H42.8161L42.8266 32.0151H42.0264Z" fill="#323264"/>
<path d="M47.9285 28.3298C48.2549 28.3298 48.5374 28.3842 48.7761 28.493C49.0183 28.6018 49.2043 28.7562 49.3342 28.9563C49.464 29.1563 49.529 29.3932 49.529 29.667C49.529 29.9373 49.464 30.1742 49.3342 30.3777C49.2043 30.5778 49.0183 30.7322 48.7761 30.841C48.5374 30.9463 48.2549 30.999 47.9285 30.999H47.1862V32.0151H46.3333V28.3298H47.9285ZM47.8811 30.304C48.1373 30.304 48.3321 30.2496 48.4655 30.1408C48.5989 30.0285 48.6656 29.8706 48.6656 29.667C48.6656 29.4599 48.5989 29.302 48.4655 29.1932C48.3321 29.0809 48.1373 29.0247 47.8811 29.0247H47.1862V30.304H47.8811Z" fill="#323264"/>
<path d="M55.0121 31.2254H53.3011L52.9747 32.0151H52.1008L53.7433 28.3298H54.5857L56.2335 32.0151H55.3385L55.0121 31.2254ZM54.7436 30.5778L54.1592 29.1669L53.5749 30.5778H54.7436Z" fill="#323264"/>
<path d="M62.6281 28.3298V32.0151H61.9279L60.0906 29.7776V32.0151H59.2482V28.3298H59.9537L61.7858 30.5673V28.3298H62.6281Z" fill="#323264"/>
<path d="M67.9013 30.7094V32.0151H67.0485V30.6989L65.6217 28.3298H66.5273L67.5117 29.9671L68.4963 28.3298H69.3333L67.9013 30.7094Z" fill="#323264"/>

 </symbol>

 <symbol id="logo-header-mobile-home" width="70" height="33" viewBox="0 0 70 33" fill="none" xmlns="http://www.w3.org/2000/svg">
<path d="M2.64358 0H0V19.0926H2.64358V12.0094C2.64358 10.8111 2.94163 9.86583 3.53774 9.20012C4.13384 8.53441 4.95024 8.18824 5.96102 8.18824C6.82926 8.18824 7.55495 8.50778 8.13809 9.12024C8.72123 9.74601 9.01929 10.5315 9.01929 11.4769V19.1059H11.6758V11.4769C11.6758 9.71938 11.1964 8.3347 10.2374 7.29619C9.27846 6.25768 8.02146 5.73843 6.49233 5.73843C6.05173 5.73843 5.61114 5.79168 5.1835 5.91151C4.7429 6.03134 4.39301 6.16448 4.10792 6.31094C3.82283 6.45739 3.5507 6.61717 3.30448 6.80356C3.05826 6.98996 2.8898 7.12311 2.81205 7.20299C2.73429 7.28288 2.6695 7.33613 2.64358 7.37608V0Z" fill="#F0145A"/>
<path d="M17.5856 0H14.8604V19.0767H17.5856V0Z" fill="white"/>
<path d="M33.6598 13.4896L33.796 12.127C33.796 10.3011 33.1965 8.77493 31.9701 7.54857C30.7438 6.32221 29.2176 5.72266 27.3917 5.72266C25.5658 5.72266 23.9851 6.37672 22.677 7.68483C21.3689 8.99295 20.7148 10.5463 20.7148 12.3995C20.7148 14.3072 21.3962 15.9423 22.7315 17.305C24.0669 18.6676 25.6748 19.3489 27.528 19.3489C28.2365 19.3489 28.8906 19.2399 29.5446 19.0491C30.1987 18.8311 30.7438 18.6131 31.1253 18.3951C31.5341 18.1498 31.9429 17.8773 32.2971 17.5775C32.6514 17.2777 32.8967 17.0597 33.0057 16.9234C33.1147 16.7872 33.1965 16.7054 33.251 16.6236L31.4796 14.8522L31.0708 15.37C30.7983 15.6971 30.335 16.0241 29.6809 16.3784C28.9996 16.7327 28.291 16.8962 27.528 16.8962C26.4651 16.8962 25.5658 16.5691 24.8027 15.8878C24.0396 15.2065 23.5764 14.4162 23.4401 13.4896H33.6598ZM27.3917 8.03912C28.4 8.03912 29.2176 8.33889 29.8989 8.9112C30.553 9.51075 30.9618 10.2466 31.1253 11.1732H23.5491C23.7944 10.2466 24.2304 9.51075 24.9117 8.9112C25.5658 8.33889 26.4106 8.03912 27.3917 8.03912Z" fill="white"/>
<path d="M46.3695 18.286C46.3695 19.4852 46.0153 20.4662 45.2794 21.2293C44.5709 21.9651 43.6715 22.3467 42.5542 22.3467C42.0637 22.3467 41.5731 22.2649 41.1098 22.1286C40.6465 21.9924 40.2922 21.8289 39.9925 21.6381C39.6927 21.4473 39.4202 21.2566 39.1476 21.0113C38.9024 20.766 38.7389 20.6025 38.6571 20.5207C38.5753 20.439 38.5208 20.3572 38.4663 20.3027L36.6949 22.0741L36.9129 22.3467C37.0492 22.5374 37.2945 22.7827 37.6215 23.0552C37.9485 23.3005 38.3301 23.573 38.7661 23.8455C39.2021 24.0908 39.7472 24.3088 40.4285 24.4996C41.1098 24.6904 41.8184 24.7994 42.5542 24.7994C44.4074 24.7994 45.9335 24.1726 47.2144 22.919C48.468 21.6381 49.0948 20.112 49.0948 18.2588V5.99518H46.3695V7.3578L45.9062 6.94902C45.6065 6.67649 45.1432 6.40397 44.4891 6.13144C43.8351 5.85892 43.1265 5.72266 42.4179 5.72266C40.7555 5.72266 39.3384 6.34946 38.112 7.63033C36.8857 8.9112 36.2861 10.4373 36.2861 12.2632C36.2861 14.0892 36.8857 15.6153 38.112 16.8962C39.3384 18.177 40.7555 18.8038 42.4179 18.8038C42.8812 18.8038 43.3173 18.7493 43.7806 18.6403C44.2166 18.5041 44.5709 18.3678 44.8707 18.2315C45.1704 18.0953 45.443 17.9318 45.6882 17.741C45.9335 17.5502 46.1243 17.414 46.1788 17.3595L46.3695 17.1687V18.286ZM39.0114 12.2632C39.0114 11.1186 39.3657 10.1648 40.1015 9.37449C40.8373 8.58417 41.7094 8.17538 42.6905 8.17538C43.6715 8.17538 44.5436 8.58417 45.2794 9.37449C45.988 10.1648 46.3695 11.1186 46.3695 12.2632C46.3695 13.4079 45.988 14.3617 45.2794 15.152C44.5436 15.9423 43.6715 16.3511 42.6905 16.3511C41.7094 16.3511 40.8373 15.9423 40.1015 15.152C39.3657 14.3617 39.0114 13.4079 39.0114 12.2632Z" fill="white"/>
<path d="M63.3195 19.0764V10.6281C63.3195 9.23823 62.8017 8.06637 61.7934 7.13979C60.7851 6.18595 59.4769 5.72266 57.869 5.72266C57.2422 5.72266 56.6154 5.80441 56.0159 5.96793C55.4163 6.1587 54.9258 6.34946 54.5715 6.56748C54.2172 6.7855 53.8629 7.03078 53.5359 7.33055C53.2089 7.60308 53.0181 7.79384 52.9091 7.90285C52.8273 8.01186 52.7456 8.09362 52.6911 8.17538L54.4625 9.94679L54.8168 9.4835C55.0348 9.18372 55.4163 8.9112 55.9886 8.61142C56.5609 8.31164 57.1877 8.17538 57.869 8.17538C58.6594 8.17538 59.3134 8.42065 59.8312 8.88394C60.349 9.34724 60.5943 9.94679 60.5943 10.6281L55.8251 11.4457C54.6533 11.6364 53.6994 12.0997 53.0454 12.8356C52.364 13.5714 52.0098 14.4707 52.0098 15.5335C52.0098 16.5419 52.4458 17.414 53.3179 18.177C54.2172 18.9674 55.3073 19.3489 56.6427 19.3489C57.106 19.3489 57.542 19.2944 57.9781 19.1581C58.4413 19.0491 58.7956 18.9129 59.0954 18.7766C59.3952 18.6403 59.6677 18.4768 59.913 18.286C60.1582 18.0953 60.3218 17.959 60.4308 17.9045C60.5125 17.8228 60.567 17.741 60.5943 17.7137V19.0764H63.3195ZM57.0515 16.8962C56.3429 16.8962 55.7706 16.7327 55.3618 16.4056C54.9258 16.0786 54.735 15.6971 54.735 15.261C54.735 14.7977 54.8713 14.3889 55.1711 14.0892C55.4708 13.7894 55.8796 13.5714 56.3702 13.4896L60.5943 12.8083V13.0808C60.5943 14.3072 60.2945 15.2338 59.6677 15.9151C59.0409 16.5691 58.1688 16.8962 57.0515 16.8962Z" fill="white"/>
<path d="M69.3337 0H66.6084V19.0767H69.3337V0Z" fill="white"/>
<path d="M0 28.3308H0.852878V31.3211H2.70078V32.016H0V28.3308Z" fill="white"/>
<path d="M8.26752 31.2263H6.5565L6.23009 32.016H5.35615L6.99873 28.3308H7.84108L9.48893 32.016H8.59393L8.26752 31.2263ZM7.99902 30.5788L7.41464 29.1678L6.83026 30.5788H7.99902Z" fill="white"/>
<path d="M17.8731 28.3308L16.6675 32.016H15.7515L14.9407 29.5206L14.1036 32.016H13.1928L11.982 28.3308H12.8664L13.6982 30.921L14.5669 28.3308H15.3566L16.199 30.942L17.0571 28.3308H17.8731Z" fill="white"/>
<path d="M26.9457 32.0792C26.5702 32.0792 26.2297 31.9985 25.9244 31.837C25.6225 31.6721 25.3838 31.4457 25.2084 31.1579C25.0364 30.8666 24.9504 30.5384 24.9504 30.1734C24.9504 29.8084 25.0364 29.482 25.2084 29.1942C25.3838 28.9028 25.6225 28.6765 25.9244 28.515C26.2297 28.3501 26.5719 28.2676 26.951 28.2676C27.2704 28.2676 27.5582 28.3237 27.8144 28.436C28.0741 28.5484 28.2917 28.7098 28.4672 28.9204L27.9197 29.4258C27.6705 29.138 27.3616 28.9941 26.9931 28.9941C26.7649 28.9941 26.5614 29.045 26.3824 29.1468C26.2034 29.2451 26.063 29.3837 25.9612 29.5627C25.8629 29.7417 25.8138 29.9453 25.8138 30.1734C25.8138 30.4015 25.8629 30.6051 25.9612 30.7841C26.063 30.9631 26.2034 31.1035 26.3824 31.2053C26.5614 31.3035 26.7649 31.3527 26.9931 31.3527C27.3616 31.3527 27.6705 31.207 27.9197 30.9157L28.4672 31.4211C28.2917 31.6352 28.0741 31.7984 27.8144 31.9107C27.5547 32.0231 27.2651 32.0792 26.9457 32.0792Z" fill="white"/>
<path d="M33.3831 32.0792C33.0005 32.0792 32.6548 31.9967 32.3459 31.8318C32.0406 31.6668 31.8002 31.4404 31.6247 31.1526C31.4527 30.8613 31.3667 30.5349 31.3667 30.1734C31.3667 29.8119 31.4527 29.4872 31.6247 29.1994C31.8002 28.9081 32.0406 28.68 32.3459 28.515C32.6548 28.3501 33.0005 28.2676 33.3831 28.2676C33.7657 28.2676 34.1096 28.3501 34.415 28.515C34.7203 28.68 34.9607 28.9081 35.1362 29.1994C35.3117 29.4872 35.3995 29.8119 35.3995 30.1734C35.3995 30.5349 35.3117 30.8613 35.1362 31.1526C34.9607 31.4404 34.7203 31.6668 34.415 31.8318C34.1096 31.9967 33.7657 32.0792 33.3831 32.0792ZM33.3831 31.3527C33.6007 31.3527 33.7972 31.3035 33.9727 31.2053C34.1482 31.1035 34.2851 30.9631 34.3834 30.7841C34.4852 30.6051 34.5361 30.4015 34.5361 30.1734C34.5361 29.9453 34.4852 29.7417 34.3834 29.5627C34.2851 29.3837 34.1482 29.2451 33.9727 29.1468C33.7972 29.045 33.6007 28.9941 33.3831 28.9941C33.1655 28.9941 32.9689 29.045 32.7934 29.1468C32.618 29.2451 32.4793 29.3837 32.3775 29.5627C32.2793 29.7417 32.2301 29.9453 32.2301 30.1734C32.2301 30.4015 32.2793 30.6051 32.3775 30.7841C32.4793 30.9631 32.618 31.1035 32.7934 31.2053C32.9689 31.3035 33.1655 31.3527 33.3831 31.3527Z" fill="white"/>
<path d="M42.0264 32.016L42.0211 29.8049L40.9366 31.6264H40.5523L39.473 29.8522V32.016H38.6728V28.3308H39.3782L40.7576 30.6209L42.1159 28.3308H42.8161L42.8266 32.016H42.0264Z" fill="white"/>
<path d="M47.9285 28.3308C48.2549 28.3308 48.5374 28.3852 48.7761 28.494C49.0183 28.6028 49.2043 28.7572 49.3342 28.9573C49.464 29.1573 49.529 29.3942 49.529 29.668C49.529 29.9382 49.464 30.1751 49.3342 30.3787C49.2043 30.5788 49.0183 30.7332 48.7761 30.842C48.5374 30.9473 48.2549 30.9999 47.9285 30.9999H47.1862V32.016H46.3333V28.3308H47.9285ZM47.8811 30.305C48.1373 30.305 48.3321 30.2506 48.4655 30.1418C48.5989 30.0295 48.6656 29.8716 48.6656 29.668C48.6656 29.4609 48.5989 29.303 48.4655 29.1942C48.3321 29.0818 48.1373 29.0257 47.8811 29.0257H47.1862V30.305H47.8811Z" fill="white"/>
<path d="M55.0121 31.2263H53.3011L52.9747 32.016H52.1008L53.7433 28.3308H54.5857L56.2335 32.016H55.3385L55.0121 31.2263ZM54.7436 30.5788L54.1592 29.1678L53.5749 30.5788H54.7436Z" fill="white"/>
<path d="M62.6281 28.3308V32.016H61.9279L60.0906 29.7785V32.016H59.2482V28.3308H59.9537L61.7858 30.5682V28.3308H62.6281Z" fill="white"/>
<path d="M67.9013 30.7104V32.016H67.0485V30.6999L65.6217 28.3308H66.5273L67.5117 29.9681L68.4963 28.3308H69.3333L67.9013 30.7104Z" fill="white"/>

 </symbol>

     <symbol id="logo-header-desktop" width="130" height="60" viewBox="0 0 130 60" fill="none">
<path d="M4.95672 0H0V35.7986H4.95672V22.5177C4.95672 20.2709 5.51557 18.4984 6.63326 17.2502C7.75095 16.002 9.2817 15.353 11.1769 15.353C12.8049 15.353 14.1655 15.9521 15.2589 17.1004C16.3523 18.2738 16.9112 19.7466 16.9112 21.5191V35.8236H21.8922V21.5191C21.8922 18.2238 20.9932 15.6276 19.1951 13.6804C17.3971 11.7332 15.0402 10.7596 12.1731 10.7596C11.347 10.7596 10.5209 10.8594 9.71906 11.0841C8.89294 11.3088 8.2369 11.5584 7.70235 11.833C7.16781 12.1076 6.65756 12.4072 6.1959 12.7567C5.73424 13.1062 5.41838 13.3558 5.27259 13.5056C5.1268 13.6554 5.00532 13.7552 4.95672 13.8301V0Z" fill="#F0145A"/>
<path d="M32.9726 0H27.8628V35.7689H32.9726V0Z" fill="#323264"/>
<path d="M63.1114 25.2933L63.3669 22.7383C63.3669 19.3148 62.2428 16.4532 59.9433 14.1538C57.6439 11.8544 54.7824 10.7302 51.3588 10.7302C47.9352 10.7302 44.9715 11.9566 42.5188 14.4093C40.0661 16.862 38.8397 19.7746 38.8397 23.2493C38.8397 26.8262 40.1172 29.8921 42.621 32.447C45.1248 35.002 48.1396 36.2794 51.6143 36.2794C52.9429 36.2794 54.1692 36.075 55.3956 35.7173C56.6219 35.3086 57.6439 34.8998 58.3593 34.491C59.1258 34.0311 59.8922 33.5201 60.5565 32.958C61.2208 32.3959 61.6807 31.9872 61.8851 31.7317C62.0895 31.4762 62.2428 31.3229 62.345 31.1696L59.0236 27.8482L58.2571 28.8191C57.7461 29.4322 56.8774 30.0454 55.6511 30.7097C54.3736 31.374 53.0451 31.6806 51.6143 31.6806C49.6215 31.6806 47.9352 31.0674 46.5045 29.7899C45.0737 28.5125 44.205 27.0306 43.9495 25.2933H63.1114ZM51.3588 15.0736C53.2494 15.0736 54.7824 15.6357 56.0599 16.7087C57.2862 17.8329 58.0527 19.2126 58.3593 20.9499H44.1539C44.6138 19.2126 45.4314 17.8329 46.7089 16.7087C47.9352 15.6357 49.5193 15.0736 51.3588 15.0736Z" fill="#323264"/>
<path d="M86.9429 34.2866C86.9429 36.5349 86.2786 38.3744 84.8989 39.8052C83.5704 41.1849 81.8841 41.9002 79.7891 41.9002C78.8693 41.9002 77.9496 41.7469 77.0809 41.4914C76.2122 41.2359 75.5479 40.9294 74.9859 40.5717C74.4238 40.214 73.9128 39.8563 73.4018 39.3964C72.9419 38.9365 72.6353 38.6299 72.482 38.4766C72.3287 38.3233 72.2265 38.17 72.1244 38.0679L68.803 41.3892L69.2117 41.9002C69.4672 42.2579 69.9271 42.7178 70.5403 43.2288C71.1535 43.6887 71.8689 44.1997 72.6864 44.7106C73.504 45.1705 74.526 45.5793 75.8034 45.937C77.0809 46.2947 78.4094 46.4991 79.7891 46.4991C83.2638 46.4991 86.1253 45.3238 88.5269 42.9733C90.8774 40.5717 92.0527 37.7102 92.0527 34.2355V11.2412H86.9429V13.7961L86.0742 13.0297C85.5121 12.5187 84.6434 12.0077 83.4171 11.4967C82.1907 10.9857 80.8622 10.7302 79.5336 10.7302C76.4166 10.7302 73.7595 11.9055 71.4601 14.3071C69.1606 16.7087 68.0365 19.5702 68.0365 22.9938C68.0365 26.4174 69.1606 29.2789 71.4601 31.6806C73.7595 34.0822 76.4166 35.2574 79.5336 35.2574C80.4023 35.2574 81.2199 35.1552 82.0885 34.9508C82.9061 34.6954 83.5704 34.4399 84.1325 34.1844C84.6945 33.9289 85.2055 33.6223 85.6654 33.2646C86.1253 32.9069 86.483 32.6514 86.5852 32.5492L86.9429 32.1915V34.2866ZM73.1463 22.9938C73.1463 20.8477 73.8106 19.0593 75.1903 17.5774C76.5699 16.0956 78.2051 15.3291 80.0446 15.3291C81.8841 15.3291 83.5193 16.0956 84.8989 17.5774C86.2275 19.0593 86.9429 20.8477 86.9429 22.9938C86.9429 25.14 86.2275 26.9284 84.8989 28.4103C83.5193 29.8921 81.8841 30.6586 80.0446 30.6586C78.2051 30.6586 76.5699 29.8921 75.1903 28.4103C73.8106 26.9284 73.1463 25.14 73.1463 22.9938Z" fill="#323264"/>
<path d="M118.724 35.7684V19.9279C118.724 17.3219 117.753 15.1247 115.863 13.3873C113.972 11.5989 111.519 10.7302 108.504 10.7302C107.329 10.7302 106.154 10.8835 105.03 11.1901C103.906 11.5478 102.986 11.9055 102.321 12.3143C101.657 12.7231 100.993 13.1829 100.38 13.745C99.7666 14.256 99.4089 14.6137 99.2045 14.8181C99.0512 15.0225 98.8979 15.1758 98.7957 15.3291L102.117 18.6505L102.781 17.7818C103.19 17.2197 103.906 16.7087 104.979 16.1467C106.052 15.5846 107.227 15.3291 108.504 15.3291C109.986 15.3291 111.213 15.789 112.183 16.6576C113.154 17.5263 113.614 18.6505 113.614 19.9279L104.672 21.4609C102.475 21.8186 100.686 22.6873 99.46 24.0669C98.1825 25.4466 97.5182 27.1328 97.5182 29.1256C97.5182 31.0163 98.3358 32.6514 99.971 34.0822C101.657 35.564 103.701 36.2794 106.205 36.2794C107.074 36.2794 107.891 36.1772 108.709 35.9217C109.577 35.7173 110.242 35.4618 110.804 35.2064C111.366 34.9509 111.877 34.6443 112.337 34.2866C112.797 33.9289 113.103 33.6734 113.308 33.5712C113.461 33.4179 113.563 33.2646 113.614 33.2135V35.7684H118.724ZM106.971 31.6806C105.643 31.6806 104.57 31.374 103.803 30.7608C102.986 30.1476 102.628 29.4322 102.628 28.6147C102.628 27.746 102.884 26.9795 103.446 26.4174C104.008 25.8554 104.774 25.4466 105.694 25.2933L113.614 24.0158V24.5268C113.614 26.8262 113.052 28.5636 111.877 29.841C110.702 31.0674 109.066 31.6806 106.971 31.6806Z" fill="#323264"/>
<path d="M130 0H124.89V35.7689H130V0Z" fill="#323264"/>
<path d="M0 53.1185H1.59915V58.7253H5.06396V60.0283H0V53.1185Z" fill="#323264"/>
<path d="M15.5016 58.5477H12.2934L11.6814 60.0283H10.0428L13.1226 53.1185H14.702L17.7917 60.0283H16.1136L15.5016 58.5477ZM14.9982 57.3335L13.9025 54.688L12.8067 57.3335H14.9982Z" fill="#323264"/>
<path d="M33.5121 53.1185L31.2516 60.0283H29.534L28.0138 55.3494L26.4443 60.0283H24.7366L22.4662 53.1185H24.1245L25.6842 57.9751L27.313 53.1185H28.7937L30.3731 58.0146L31.9821 53.1185H33.5121Z" fill="#323264"/>
<path d="M50.5232 60.1468C49.819 60.1468 49.1807 59.9954 48.6082 59.6927C48.0422 59.3834 47.5947 58.959 47.2657 58.4193C46.9432 57.8731 46.782 57.2578 46.782 56.5734C46.782 55.889 46.9432 55.277 47.2657 54.7373C47.5947 54.1911 48.0422 53.7667 48.6082 53.464C49.1807 53.1547 49.8223 53 50.5331 53C51.1319 53 51.6716 53.1053 52.152 53.3159C52.6389 53.5265 53.047 53.8292 53.376 54.224L52.3494 55.1717C51.8821 54.6321 51.303 54.3622 50.612 54.3622C50.1843 54.3622 49.8026 54.4577 49.467 54.6485C49.1313 54.8328 48.8681 55.0927 48.6773 55.4283C48.493 55.764 48.4009 56.1456 48.4009 56.5734C48.4009 57.0012 48.493 57.3828 48.6773 57.7185C48.8681 58.0541 49.1313 58.3173 49.467 58.5082C49.8026 58.6924 50.1843 58.7846 50.612 58.7846C51.303 58.7846 51.8821 58.5115 52.3494 57.9653L53.376 58.9129C53.047 59.3143 52.6389 59.6203 52.152 59.8309C51.665 60.0415 51.1221 60.1468 50.5232 60.1468Z" fill="#323264"/>
<path d="M62.5933 60.1468C61.876 60.1468 61.2278 59.9922 60.6487 59.6829C60.0761 59.3736 59.6253 58.9491 59.2963 58.4095C58.9738 57.8632 58.8126 57.2512 58.8126 56.5734C58.8126 55.8956 58.9738 55.2868 59.2963 54.7472C59.6253 54.201 60.0761 53.7733 60.6487 53.464C61.2278 53.1547 61.876 53 62.5933 53C63.3106 53 63.9555 53.1547 64.5281 53.464C65.1006 53.7733 65.5514 54.201 65.8804 54.7472C66.2095 55.2868 66.374 55.8956 66.374 56.5734C66.374 57.2512 66.2095 57.8632 65.8804 58.4095C65.5514 58.9491 65.1006 59.3736 64.5281 59.6829C63.9555 59.9922 63.3106 60.1468 62.5933 60.1468ZM62.5933 58.7846C63.0013 58.7846 63.3698 58.6924 63.6989 58.5082C64.0279 58.3173 64.2846 58.0541 64.4688 57.7185C64.6597 57.3828 64.7551 57.0012 64.7551 56.5734C64.7551 56.1456 64.6597 55.764 64.4688 55.4283C64.2846 55.0927 64.0279 54.8328 63.6989 54.6485C63.3698 54.4577 63.0013 54.3622 62.5933 54.3622C62.1853 54.3622 61.8168 54.4577 61.4877 54.6485C61.1587 54.8328 60.8987 55.0927 60.7079 55.4283C60.5236 55.764 60.4315 56.1456 60.4315 56.5734C60.4315 57.0012 60.5236 57.3828 60.7079 57.7185C60.8987 58.0541 61.1587 58.3173 61.4877 58.5082C61.8168 58.6924 62.1853 58.7846 62.5933 58.7846Z" fill="#323264"/>
<path d="M78.7995 60.0283L78.7896 55.8824L76.7561 59.2979H76.0355L74.0119 55.9713V60.0283H72.5115V53.1185H73.8342L76.4205 57.4125L78.9673 53.1185H80.2802L80.2999 60.0283H78.7995Z" fill="#323264"/>
<path d="M89.8659 53.1185C90.478 53.1185 91.0077 53.2205 91.4552 53.4245C91.9093 53.6285 92.2581 53.918 92.5016 54.2931C92.7451 54.6682 92.8668 55.1125 92.8668 55.6258C92.8668 56.1325 92.7451 56.5767 92.5016 56.9584C92.2581 57.3335 91.9093 57.623 91.4552 57.8271C91.0077 58.0245 90.478 58.1232 89.8659 58.1232H88.4741V60.0283H86.8749V53.1185H89.8659ZM89.7771 56.8202C90.2575 56.8202 90.6227 56.7182 90.8728 56.5142C91.1229 56.3036 91.2479 56.0074 91.2479 55.6258C91.2479 55.2375 91.1229 54.9414 90.8728 54.7373C90.6227 54.5268 90.2575 54.4215 89.7771 54.4215H88.4741V56.8202H89.7771Z" fill="#323264"/>
<path d="M103.148 58.5477H99.9396L99.3276 60.0283H97.6889L100.769 53.1185H102.348L105.438 60.0283H103.76L103.148 58.5477ZM102.644 57.3335L101.549 54.688L100.453 57.3335H102.644Z" fill="#323264"/>
<path d="M117.428 53.1185V60.0283H116.115L112.67 55.8331V60.0283H111.09V53.1185H112.413L115.848 57.3137V53.1185H117.428Z" fill="#323264"/>
<path d="M127.315 57.5803V60.0283H125.716V57.5605L123.041 53.1185H124.739L126.585 56.1884L128.43 53.1185H130L127.315 57.5803Z" fill="#323264"/>
    </symbol>

    <symbol id="logo-header-desktop-home" width="130" height="60" viewBox="0 0 130 60" fill="none">
<path d="M4.95672 0H0V35.7986H4.95672V22.5177C4.95672 20.2709 5.51557 18.4984 6.63326 17.2502C7.75095 16.002 9.2817 15.353 11.1769 15.353C12.8049 15.353 14.1655 15.9521 15.2589 17.1004C16.3523 18.2738 16.9112 19.7466 16.9112 21.5191V35.8236H21.8922V21.5191C21.8922 18.2238 20.9932 15.6276 19.1951 13.6804C17.3971 11.7332 15.0402 10.7596 12.1731 10.7596C11.347 10.7596 10.5209 10.8594 9.71906 11.0841C8.89294 11.3088 8.2369 11.5584 7.70235 11.833C7.16781 12.1076 6.65756 12.4072 6.1959 12.7567C5.73424 13.1062 5.41838 13.3558 5.27259 13.5056C5.1268 13.6554 5.00532 13.7552 4.95672 13.8301V0Z" fill="#F0145A"/>
<path d="M32.9727 0H27.8628V35.7689H32.9727V0Z" fill="white"/>
<path d="M63.1115 25.2935L63.367 22.7386C63.367 19.315 62.2428 16.4535 59.9434 14.1541C57.6439 11.8546 54.7824 10.7305 51.3588 10.7305C47.9352 10.7305 44.9715 11.9568 42.5188 14.4096C40.0661 16.8623 38.8397 19.7749 38.8397 23.2496C38.8397 26.8265 40.1172 29.8924 42.621 32.4473C45.1248 35.0022 48.1396 36.2797 51.6143 36.2797C52.9429 36.2797 54.1692 36.0753 55.3956 35.7176C56.622 35.3088 57.6439 34.9 58.3593 34.4912C59.1258 34.0313 59.8923 33.5204 60.5565 32.9583C61.2208 32.3962 61.6807 31.9874 61.8851 31.7319C62.0895 31.4764 62.2428 31.3231 62.345 31.1698L59.0236 27.8484L58.2571 28.8193C57.7461 29.4325 56.8775 30.0457 55.6511 30.7099C54.3736 31.3742 53.0451 31.6808 51.6143 31.6808C49.6215 31.6808 47.9352 31.0676 46.5045 29.7902C45.0737 28.5127 44.2051 27.0309 43.9496 25.2935H63.1115ZM51.3588 15.0738C53.2495 15.0738 54.7824 15.6359 56.0599 16.709C57.2862 17.8331 58.0527 19.2128 58.3593 20.9501H44.154C44.6138 19.2128 45.4314 17.8331 46.7089 16.709C47.9352 15.6359 49.5193 15.0738 51.3588 15.0738Z" fill="white"/>
<path d="M86.9429 34.2868C86.9429 36.5351 86.2786 38.3747 84.899 39.8054C83.5704 41.1851 81.8842 41.9005 79.7891 41.9005C78.8694 41.9005 77.9496 41.7472 77.0809 41.4917C76.2122 41.2362 75.548 40.9296 74.9859 40.5719C74.4238 40.2142 73.9128 39.8565 73.4018 39.3967C72.9419 38.9368 72.6354 38.6302 72.4821 38.4769C72.3288 38.3236 72.2266 38.1703 72.1244 38.0681L68.803 41.3895L69.2118 41.9005C69.4673 42.2582 69.9271 42.718 70.5403 43.229C71.1535 43.6889 71.8689 44.1999 72.6865 44.7109C73.504 45.1708 74.526 45.5796 75.8035 45.9372C77.0809 46.2949 78.4095 46.4993 79.7891 46.4993C83.2638 46.4993 86.1253 45.3241 88.5269 42.9735C90.8775 40.5719 92.0527 37.7104 92.0527 34.2357V11.2415H86.9429V13.7964L86.0742 13.0299C85.5121 12.5189 84.6435 12.0079 83.4171 11.4969C82.1907 10.986 80.8622 10.7305 79.5336 10.7305C76.4166 10.7305 73.7595 11.9057 71.4601 14.3074C69.1607 16.709 68.0365 19.5705 68.0365 22.9941C68.0365 26.4177 69.1607 29.2792 71.4601 31.6808C73.7595 34.0824 76.4166 35.2577 79.5336 35.2577C80.4023 35.2577 81.2199 35.1555 82.0885 34.9511C82.9061 34.6956 83.5704 34.4401 84.1325 34.1846C84.6946 33.9291 85.2055 33.6225 85.6654 33.2648C86.1253 32.9072 86.483 32.6517 86.5852 32.5495L86.9429 32.1918V34.2868ZM73.1463 22.9941C73.1463 20.8479 73.8106 19.0595 75.1903 17.5777C76.5699 16.0958 78.2051 15.3293 80.0446 15.3293C81.8842 15.3293 83.5193 16.0958 84.899 17.5777C86.2275 19.0595 86.9429 20.8479 86.9429 22.9941C86.9429 25.1402 86.2275 26.9287 84.899 28.4105C83.5193 29.8924 81.8842 30.6588 80.0446 30.6588C78.2051 30.6588 76.5699 29.8924 75.1903 28.4105C73.8106 26.9287 73.1463 25.1402 73.1463 22.9941Z" fill="white"/>
<path d="M118.724 35.7687V19.9282C118.724 17.3222 117.753 15.1249 115.863 13.3876C113.972 11.5991 111.519 10.7305 108.504 10.7305C107.329 10.7305 106.154 10.8838 105.03 11.1904C103.906 11.548 102.986 11.9057 102.322 12.3145C101.657 12.7233 100.993 13.1832 100.38 13.7453C99.7666 14.2563 99.409 14.6139 99.2046 14.8183C99.0513 15.0227 98.898 15.176 98.7958 15.3293L102.117 18.6507L102.781 17.782C103.19 17.22 103.906 16.709 104.979 16.1469C106.052 15.5848 107.227 15.3293 108.504 15.3293C109.986 15.3293 111.213 15.7892 112.184 16.6579C113.154 17.5266 113.614 18.6507 113.614 19.9282L104.672 21.4611C102.475 21.8188 100.686 22.6875 99.46 24.0672C98.1826 25.4468 97.5183 27.1331 97.5183 29.1259C97.5183 31.0165 98.3359 32.6517 99.971 34.0824C101.657 35.5643 103.701 36.2797 106.205 36.2797C107.074 36.2797 107.891 36.1775 108.709 35.922C109.578 35.7176 110.242 35.4621 110.804 35.2066C111.366 34.9511 111.877 34.6445 112.337 34.2868C112.797 33.9291 113.103 33.6736 113.308 33.5715C113.461 33.4182 113.563 33.2649 113.614 33.2138V35.7687H118.724ZM106.972 31.6808C105.643 31.6808 104.57 31.3742 103.803 30.761C102.986 30.1479 102.628 29.4325 102.628 28.6149C102.628 27.7462 102.884 26.9798 103.446 26.4177C104.008 25.8556 104.774 25.4468 105.694 25.2935L113.614 24.0161V24.527C113.614 26.8265 113.052 28.5638 111.877 29.8413C110.702 31.0676 109.067 31.6808 106.972 31.6808Z" fill="white"/>
<path d="M130 0H124.89V35.7689H130V0Z" fill="white"/>
<path d="M0 53.1185H1.59915V58.7253H5.06396V60.0283H0V53.1185Z" fill="white"/>
<path d="M15.5016 58.5477H12.2934L11.6814 60.0283H10.0428L13.1226 53.1185H14.702L17.7917 60.0283H16.1136L15.5016 58.5477ZM14.9982 57.3335L13.9025 54.688L12.8067 57.3335H14.9982Z" fill="white"/>
<path d="M33.5121 53.1185L31.2516 60.0283H29.534L28.0138 55.3494L26.4443 60.0283H24.7366L22.4662 53.1185H24.1245L25.6842 57.9751L27.313 53.1185H28.7937L30.3731 58.0146L31.9821 53.1185H33.5121Z" fill="white"/>
<path d="M50.5232 60.1468C49.819 60.1468 49.1807 59.9954 48.6082 59.6927C48.0422 59.3834 47.5947 58.959 47.2657 58.4193C46.9432 57.8731 46.782 57.2578 46.782 56.5734C46.782 55.889 46.9432 55.277 47.2657 54.7373C47.5947 54.1911 48.0422 53.7667 48.6082 53.464C49.1807 53.1547 49.8223 53 50.5331 53C51.1319 53 51.6716 53.1053 52.152 53.3159C52.6389 53.5265 53.047 53.8292 53.376 54.224L52.3494 55.1717C51.8821 54.6321 51.303 54.3622 50.612 54.3622C50.1843 54.3622 49.8026 54.4577 49.467 54.6485C49.1313 54.8328 48.8681 55.0927 48.6773 55.4283C48.493 55.764 48.4009 56.1456 48.4009 56.5734C48.4009 57.0012 48.493 57.3828 48.6773 57.7185C48.8681 58.0541 49.1313 58.3173 49.467 58.5082C49.8026 58.6924 50.1843 58.7846 50.612 58.7846C51.303 58.7846 51.8821 58.5115 52.3494 57.9653L53.376 58.9129C53.047 59.3143 52.6389 59.6203 52.152 59.8309C51.665 60.0415 51.1221 60.1468 50.5232 60.1468Z" fill="white"/>
<path d="M62.5933 60.1468C61.876 60.1468 61.2278 59.9922 60.6487 59.6829C60.0761 59.3736 59.6253 58.9491 59.2963 58.4095C58.9738 57.8632 58.8126 57.2512 58.8126 56.5734C58.8126 55.8956 58.9738 55.2868 59.2963 54.7472C59.6253 54.201 60.0761 53.7733 60.6487 53.464C61.2278 53.1547 61.876 53 62.5933 53C63.3106 53 63.9555 53.1547 64.5281 53.464C65.1006 53.7733 65.5514 54.201 65.8804 54.7472C66.2095 55.2868 66.374 55.8956 66.374 56.5734C66.374 57.2512 66.2095 57.8632 65.8804 58.4095C65.5514 58.9491 65.1006 59.3736 64.5281 59.6829C63.9555 59.9922 63.3106 60.1468 62.5933 60.1468ZM62.5933 58.7846C63.0013 58.7846 63.3698 58.6924 63.6989 58.5082C64.0279 58.3173 64.2846 58.0541 64.4688 57.7185C64.6597 57.3828 64.7551 57.0012 64.7551 56.5734C64.7551 56.1456 64.6597 55.764 64.4688 55.4283C64.2846 55.0927 64.0279 54.8328 63.6989 54.6485C63.3698 54.4577 63.0013 54.3622 62.5933 54.3622C62.1853 54.3622 61.8168 54.4577 61.4877 54.6485C61.1587 54.8328 60.8987 55.0927 60.7079 55.4283C60.5236 55.764 60.4315 56.1456 60.4315 56.5734C60.4315 57.0012 60.5236 57.3828 60.7079 57.7185C60.8987 58.0541 61.1587 58.3173 61.4877 58.5082C61.8168 58.6924 62.1853 58.7846 62.5933 58.7846Z" fill="white"/>
<path d="M78.7995 60.0283L78.7896 55.8824L76.7561 59.2979H76.0355L74.0119 55.9713V60.0283H72.5115V53.1185H73.8342L76.4205 57.4125L78.9673 53.1185H80.2802L80.2999 60.0283H78.7995Z" fill="white"/>
<path d="M89.8659 53.1185C90.478 53.1185 91.0077 53.2205 91.4552 53.4245C91.9093 53.6285 92.2581 53.918 92.5016 54.2931C92.7451 54.6682 92.8668 55.1125 92.8668 55.6258C92.8668 56.1325 92.7451 56.5767 92.5016 56.9584C92.2581 57.3335 91.9093 57.623 91.4552 57.8271C91.0077 58.0245 90.478 58.1232 89.8659 58.1232H88.4741V60.0283H86.8749V53.1185H89.8659ZM89.7771 56.8202C90.2575 56.8202 90.6227 56.7182 90.8728 56.5142C91.1229 56.3036 91.2479 56.0074 91.2479 55.6258C91.2479 55.2375 91.1229 54.9414 90.8728 54.7373C90.6227 54.5268 90.2575 54.4215 89.7771 54.4215H88.4741V56.8202H89.7771Z" fill="white"/>
<path d="M103.148 58.5477H99.9396L99.3276 60.0283H97.6889L100.769 53.1185H102.348L105.438 60.0283H103.76L103.148 58.5477ZM102.644 57.3335L101.549 54.688L100.453 57.3335H102.644Z" fill="white"/>
<path d="M117.428 53.1185V60.0283H116.115L112.67 55.8331V60.0283H111.09V53.1185H112.413L115.848 57.3137V53.1185H117.428Z" fill="white"/>
<path d="M127.315 57.5803V60.0283H125.716V57.5605L123.041 53.1185H124.739L126.585 56.1884L128.43 53.1185H130L127.315 57.5803Z" fill="white"/>
    </symbol>
    
    
<symbol id="h-logo"  viewBox="0 0 697 799" fill="none">
<path fill-rule="evenodd" clip-rule="evenodd" d="M245.112 340H432.082C485.793 340 530.618 362.912 558.49 401.63C586.34 440.35 587.199 504.956 570.958 555.498L550.194 620.023C541.522 646.966 500.918 774.384 493 799H391C391 799 392.559 800.366 477.767 535.5C485.29 512.126 489.586 474.185 477.767 457.777C465.968 441.37 446.06 431.66 419.718 431.66H266.886C236.876 431.66 210.283 451.178 200.999 480.005L245.112 340Z" fill="url(#paint0_linear_22728_11332)"/>
<path fill-rule="evenodd" clip-rule="evenodd" d="M99.3445 799H-0.369385C84.4982 532.509 170.329 266.331 255.698 0H355.276C354.856 1.33198 354.431 2.6675 353.999 4.00646C215.866 429.03 262.985 285.497 99.3445 799Z" fill="#F0145A"/>
 </symbol>

 <symbol id="button-scroll" width="42" height="42" viewBox="0 0 42 42" fill="none">
<circle opacity="0.5" cx="21" cy="21" r="20" stroke="currentcolor" stroke-width="2"/>
<path d="M12 18L21 27L30 18" stroke="currentcolor" stroke-width="2"/>
</symbol>

 <symbol id="services" width="12" height="13" viewBox="0 0 12 13" fill="none">
<path d="M3.5 2L8 6.5L3.5 11" stroke="#24A3FF" stroke-width="2"/>
</symbol>


 <symbol id="services-1" width="64" height="64" viewBox="0 0 64 64" fill="none">
<path d="M23.7339 28.125C24.8379 28.125 25.7339 27.229 25.7339 26.125V18.325C25.7339 14.838 28.5709 12 32.0579 12C35.5449 12 38.3829 14.838 38.3829 18.325V26.125C38.3829 27.229 39.2779 28.125 40.3829 28.125C41.4869 28.125 42.3829 27.229 42.3829 26.125V18.325C42.3839 12.632 37.7519 8 32.0579 8C26.3659 8 21.7339 12.632 21.7339 18.325V26.125C21.7339 27.229 22.6299 28.125 23.7339 28.125Z" fill="url(#paint0_linear_22728_7131)"/>
<path d="M55 23.6309H44.384V26.1249C44.384 28.3309 42.59 30.1249 40.384 30.1249C38.178 30.1249 36.384 28.3309 36.384 26.1249V23.6309H27.735V26.1249C27.735 28.3309 25.941 30.1249 23.735 30.1249C21.529 30.1249 19.735 28.3309 19.735 26.1249V23.6309H8.99997C8.44797 23.6309 8.10697 24.0659 8.23797 24.6019L15.236 53.0989C15.658 54.7009 17.344 55.9999 19 55.9999H45C46.658 55.9999 48.342 54.7009 48.766 53.0989L55.762 24.6019C55.893 24.0649 55.553 23.6309 55 23.6309Z" fill="url(#paint1_linear_22728_7131)"/>
<path d="M28.6001 34.4C28.6001 33.6265 29.2266 33 30.0001 33C30.7736 33 31.4001 33.6265 31.4001 34.4V41.35L31.4001 40C31.4001 39.2265 32.0266 38.6 32.8001 38.6C33.5736 38.6 34.2001 39.2265 34.2001 40V41.6764C34.2127 40.9141 34.8346 39.3 35.6 39.3C36.3731 39.3 36.9999 39.9268 37 40.7C37 40.7 37.0411 41.7411 37.1332 41.8033C37.3572 41.3285 37.8402 40 38.4 40C39.1732 40 39.8 40.6268 39.8 41.4V48.4C39.8 49.9463 38.5463 51.2 37 51.2H32.3198C30.8344 51.2 29.4099 50.6099 28.3599 49.5599L26.15 47.35L23 45.9402C23.0051 44.6033 24.0526 44.2 25.1 44.2C26.0023 44.2 26.8136 44.3407 28.6 45.25L28.6001 34.4Z" fill="white"/>
</symbol>

 <symbol id="services-2" width="64" height="64" viewBox="0 0 64 64" fill="none">
<path d="M23.7339 28.125C24.8379 28.125 25.7339 27.229 25.7339 26.125V18.325C25.7339 14.838 28.5709 12 32.0579 12C35.5449 12 38.3829 14.838 38.3829 18.325V26.125C38.3829 27.229 39.2779 28.125 40.3829 28.125C41.4869 28.125 42.3829 27.229 42.3829 26.125V18.325C42.3839 12.632 37.7519 8 32.0579 8C26.3659 8 21.7339 12.632 21.7339 18.325V26.125C21.7339 27.229 22.6299 28.125 23.7339 28.125Z" fill="url(#paint0_linear_22728_7131)"/>
<path d="M55 23.6309H44.384V26.1249C44.384 28.3309 42.59 30.1249 40.384 30.1249C38.178 30.1249 36.384 28.3309 36.384 26.1249V23.6309H27.735V26.1249C27.735 28.3309 25.941 30.1249 23.735 30.1249C21.529 30.1249 19.735 28.3309 19.735 26.1249V23.6309H8.99997C8.44797 23.6309 8.10697 24.0659 8.23797 24.6019L15.236 53.0989C15.658 54.7009 17.344 55.9999 19 55.9999H45C46.658 55.9999 48.342 54.7009 48.766 53.0989L55.762 24.6019C55.893 24.0649 55.553 23.6309 55 23.6309Z" fill="url(#paint1_linear_22728_7131)"/>
<path d="M28.6001 34.4C28.6001 33.6265 29.2266 33 30.0001 33C30.7736 33 31.4001 33.6265 31.4001 34.4V41.35L31.4001 40C31.4001 39.2265 32.0266 38.6 32.8001 38.6C33.5736 38.6 34.2001 39.2265 34.2001 40V41.6764C34.2127 40.9141 34.8346 39.3 35.6 39.3C36.3731 39.3 36.9999 39.9268 37 40.7C37 40.7 37.0411 41.7411 37.1332 41.8033C37.3572 41.3285 37.8402 40 38.4 40C39.1732 40 39.8 40.6268 39.8 41.4V48.4C39.8 49.9463 38.5463 51.2 37 51.2H32.3198C30.8344 51.2 29.4099 50.6099 28.3599 49.5599L26.15 47.35L23 45.9402C23.0051 44.6033 24.0526 44.2 25.1 44.2C26.0023 44.2 26.8136 44.3407 28.6 45.25L28.6001 34.4Z" fill="white"/>
<defs>
<linearGradient id="paint0_linear_22728_7131" x1="32.0584" y1="8" x2="32.0584" y2="28.125" gradientUnits="userSpaceOnUse">
<stop stop-color="#EF8080"/>
<stop offset="1" stop-color="#F0145A"/>
</linearGradient>
<linearGradient id="paint1_linear_22728_7131" x1="32" y1="23.6309" x2="32" y2="55.9999" gradientUnits="userSpaceOnUse">
<stop stop-color="#EF8080"/>
<stop offset="1" stop-color="#F0145A"/>
</linearGradient>
</defs>
</symbol>

 <symbol id="services-3" width="64" height="64" viewBox="0 0 64 64" fill="none">
<g clip-path="url(#clip0_22728_7150)">
<path d="M60.5264 37.7273C59.8389 37.4426 59.1151 37.2982 58.3752 37.2982C56.7435 37.2982 55.2362 37.9946 54.1896 39.1615L52.9696 38.6562L49.4895 37.2147C49.9834 35.5616 50.2499 33.8113 50.2499 31.9998C50.2499 30.1883 49.9832 28.4381 49.4895 26.7849L52.9696 25.3435L54.1896 24.8381C55.2362 26.0051 56.7435 26.7014 58.3752 26.7014C59.1151 26.7014 59.8389 26.5571 60.5264 26.2722C63.3917 25.0852 64.7575 21.7883 63.5705 18.9227C62.6965 16.8128 60.656 15.4493 58.3722 15.4493C57.6324 15.4493 56.9086 15.5937 56.2211 15.8786C53.9629 16.814 52.6374 19.0598 52.7574 21.3722L51.5303 21.8805L48.0513 23.3215C46.3611 20.208 43.7916 17.6383 40.6781 15.9483L42.1191 12.4694L42.6269 11.2436C42.7253 11.2487 42.8239 11.2517 42.9229 11.2517C45.2068 11.2517 47.2471 9.88836 48.1213 7.77836C49.3081 4.91287 47.9425 1.61587 45.077 0.428874C44.3894 0.144375 43.6658 0 42.9259 0C40.642 0 38.6017 1.36337 37.7275 3.47337C36.7922 5.73161 37.4429 8.25698 39.1629 9.80723L38.6564 11.0301L37.2149 14.5102C35.5618 14.0165 33.8115 13.7498 32 13.7498C30.1885 13.7498 28.4383 14.0165 26.7852 14.5102L25.3437 11.0301L24.8372 9.80723C26.5572 8.25698 27.2079 5.73161 26.2725 3.47324C25.3984 1.36337 23.3578 0 21.0741 0C20.3342 0 19.6104 0.144375 18.9229 0.429249C16.0576 1.61625 14.6918 4.91312 15.8788 7.77874C16.7528 9.88861 18.7933 11.2521 21.0771 11.2521C21.1761 11.2521 21.2747 11.2491 21.3731 11.244L21.8808 12.4697L23.3218 15.9487C20.2083 17.6388 17.6387 20.2083 15.9487 23.3218L12.4697 21.8808L11.2426 21.3726C11.3626 19.0602 10.0371 16.8143 7.77883 15.8788C7.09133 15.5941 6.36758 15.4497 5.62771 15.4497C3.34384 15.4497 1.30347 16.8131 0.429344 18.9231C-0.757529 21.7886 0.608094 25.0856 3.47359 26.2726C4.16109 26.5573 4.88484 26.7017 5.62471 26.7017C7.25646 26.7017 8.7637 26.0053 9.81033 24.8383L11.0303 25.3437L14.5104 26.7852C14.0166 28.4383 13.7501 30.1886 13.7501 32.0001C13.7501 33.8116 14.0167 35.5618 14.5104 37.2149L11.0302 38.6562L9.8102 39.1615C8.76358 37.9946 7.25633 37.2982 5.62458 37.2982C4.88471 37.2982 4.16096 37.4426 3.47346 37.7274C0.608094 38.9144 -0.757654 42.2113 0.429344 45.0769C1.30334 47.1868 3.34384 48.5503 5.62758 48.5503C6.36746 48.5503 7.09121 48.4059 7.77871 48.121C10.037 47.1857 11.3624 44.9398 11.2424 42.6274L12.4696 42.1192L15.9486 40.6782C17.6387 43.7917 20.2082 46.3613 23.3217 48.0513L21.8807 51.5303L21.3729 52.756C21.2746 52.7509 21.1759 52.7479 21.0769 52.7479C18.7931 52.7479 16.7527 54.1113 15.8786 56.2213C14.6917 59.0868 16.0573 62.3838 18.9228 63.5708C19.6103 63.8555 20.3341 63.9999 21.0739 63.9999C23.3578 63.9999 25.3982 62.6365 26.2723 60.5265C27.2077 58.2683 26.5569 55.7429 24.8369 54.1926L25.3434 52.9698L26.7849 49.4897C28.438 49.9834 30.1883 50.25 31.9998 50.25C33.8113 50.25 35.5615 49.9834 37.2146 49.4897L38.6561 52.9698L39.1626 54.1926C37.4426 55.7429 36.7919 58.2683 37.7273 60.5266C38.6013 62.6365 40.6418 64 42.9255 64C43.6654 64 44.3891 63.8556 45.0766 63.5708C47.942 62.3838 49.3078 59.0869 48.1208 56.2213C47.2468 54.1114 45.2063 52.7479 42.9225 52.7479C42.8235 52.7479 42.7249 52.7509 42.6265 52.756L42.1188 51.5303L40.6778 48.0513C43.7913 46.3612 46.3609 43.7917 48.0509 40.6782L51.5299 42.1192L52.757 42.6274C52.637 44.9398 53.9625 47.1857 56.2207 48.1212C56.9082 48.4059 57.632 48.5503 58.3719 48.5503C60.6557 48.5503 62.6961 47.1869 63.5702 45.0769C64.7575 42.2113 63.392 38.9143 60.5264 37.7273ZM32 46.4998C24.0048 46.4998 17.5001 39.995 17.5001 31.9998C17.5001 24.0046 24.0048 17.4998 32 17.4998C39.9953 17.4998 46.5 24.0046 46.5 31.9998C46.5 39.995 39.9951 46.4998 32 46.4998Z" fill="black"/>
<path d="M60.5264 37.7273C59.8389 37.4426 59.1151 37.2982 58.3752 37.2982C56.7435 37.2982 55.2362 37.9946 54.1896 39.1615L52.9696 38.6562L49.4895 37.2147C49.9834 35.5616 50.2499 33.8113 50.2499 31.9998C50.2499 30.1883 49.9832 28.4381 49.4895 26.7849L52.9696 25.3435L54.1896 24.8381C55.2362 26.0051 56.7435 26.7014 58.3752 26.7014C59.1151 26.7014 59.8389 26.5571 60.5264 26.2722C63.3917 25.0852 64.7575 21.7883 63.5705 18.9227C62.6965 16.8128 60.656 15.4493 58.3722 15.4493C57.6324 15.4493 56.9086 15.5937 56.2211 15.8786C53.9629 16.814 52.6374 19.0598 52.7574 21.3722L51.5303 21.8805L48.0513 23.3215C46.3611 20.208 43.7916 17.6383 40.6781 15.9483L42.1191 12.4694L42.6269 11.2436C42.7253 11.2487 42.8239 11.2517 42.9229 11.2517C45.2068 11.2517 47.2471 9.88836 48.1213 7.77836C49.3081 4.91287 47.9425 1.61587 45.077 0.428874C44.3894 0.144375 43.6658 0 42.9259 0C40.642 0 38.6017 1.36337 37.7275 3.47337C36.7922 5.73161 37.4429 8.25698 39.1629 9.80723L38.6564 11.0301L37.2149 14.5102C35.5618 14.0165 33.8115 13.7498 32 13.7498C30.1885 13.7498 28.4383 14.0165 26.7852 14.5102L25.3437 11.0301L24.8372 9.80723C26.5572 8.25698 27.2079 5.73161 26.2725 3.47324C25.3984 1.36337 23.3578 0 21.0741 0C20.3342 0 19.6104 0.144375 18.9229 0.429249C16.0576 1.61625 14.6918 4.91312 15.8788 7.77874C16.7528 9.88861 18.7933 11.2521 21.0771 11.2521C21.1761 11.2521 21.2747 11.2491 21.3731 11.244L21.8808 12.4697L23.3218 15.9487C20.2083 17.6388 17.6387 20.2083 15.9487 23.3218L12.4697 21.8808L11.2426 21.3726C11.3626 19.0602 10.0371 16.8143 7.77883 15.8788C7.09133 15.5941 6.36758 15.4497 5.62771 15.4497C3.34384 15.4497 1.30347 16.8131 0.429344 18.9231C-0.757529 21.7886 0.608094 25.0856 3.47359 26.2726C4.16109 26.5573 4.88484 26.7017 5.62471 26.7017C7.25646 26.7017 8.7637 26.0053 9.81033 24.8383L11.0303 25.3437L14.5104 26.7852C14.0166 28.4383 13.7501 30.1886 13.7501 32.0001C13.7501 33.8116 14.0167 35.5618 14.5104 37.2149L11.0302 38.6562L9.8102 39.1615C8.76358 37.9946 7.25633 37.2982 5.62458 37.2982C4.88471 37.2982 4.16096 37.4426 3.47346 37.7274C0.608094 38.9144 -0.757654 42.2113 0.429344 45.0769C1.30334 47.1868 3.34384 48.5503 5.62758 48.5503C6.36746 48.5503 7.09121 48.4059 7.77871 48.121C10.037 47.1857 11.3624 44.9398 11.2424 42.6274L12.4696 42.1192L15.9486 40.6782C17.6387 43.7917 20.2082 46.3613 23.3217 48.0513L21.8807 51.5303L21.3729 52.756C21.2746 52.7509 21.1759 52.7479 21.0769 52.7479C18.7931 52.7479 16.7527 54.1113 15.8786 56.2213C14.6917 59.0868 16.0573 62.3838 18.9228 63.5708C19.6103 63.8555 20.3341 63.9999 21.0739 63.9999C23.3578 63.9999 25.3982 62.6365 26.2723 60.5265C27.2077 58.2683 26.5569 55.7429 24.8369 54.1926L25.3434 52.9698L26.7849 49.4897C28.438 49.9834 30.1883 50.25 31.9998 50.25C33.8113 50.25 35.5615 49.9834 37.2146 49.4897L38.6561 52.9698L39.1626 54.1926C37.4426 55.7429 36.7919 58.2683 37.7273 60.5266C38.6013 62.6365 40.6418 64 42.9255 64C43.6654 64 44.3891 63.8556 45.0766 63.5708C47.942 62.3838 49.3078 59.0869 48.1208 56.2213C47.2468 54.1114 45.2063 52.7479 42.9225 52.7479C42.8235 52.7479 42.7249 52.7509 42.6265 52.756L42.1188 51.5303L40.6778 48.0513C43.7913 46.3612 46.3609 43.7917 48.0509 40.6782L51.5299 42.1192L52.757 42.6274C52.637 44.9398 53.9625 47.1857 56.2207 48.1212C56.9082 48.4059 57.632 48.5503 58.3719 48.5503C60.6557 48.5503 62.6961 47.1869 63.5702 45.0769C64.7575 42.2113 63.392 38.9143 60.5264 37.7273ZM32 46.4998C24.0048 46.4998 17.5001 39.995 17.5001 31.9998C17.5001 24.0046 24.0048 17.4998 32 17.4998C39.9953 17.4998 46.5 24.0046 46.5 31.9998C46.5 39.995 39.9951 46.4998 32 46.4998Z" fill="url(#paint0_linear_22728_7150)"/>
<path d="M32.0001 21.25C26.0726 21.25 21.2501 26.0725 21.2501 32C21.2501 37.9275 26.0726 42.75 32.0001 42.75C37.9276 42.75 42.7501 37.9275 42.7501 32C42.7501 26.0725 37.9276 21.25 32.0001 21.25ZM33.8751 36.125H30.1251V27.875H33.8751V36.125Z" fill="black"/>
<path d="M32.0001 21.25C26.0726 21.25 21.2501 26.0725 21.2501 32C21.2501 37.9275 26.0726 42.75 32.0001 42.75C37.9276 42.75 42.7501 37.9275 42.7501 32C42.7501 26.0725 37.9276 21.25 32.0001 21.25ZM33.8751 36.125H30.1251V27.875H33.8751V36.125Z" fill="url(#paint1_linear_22728_7150)"/>
</g>
<defs>
<linearGradient id="paint0_linear_22728_7150" x1="31.9999" y1="0" x2="31.9999" y2="64" gradientUnits="userSpaceOnUse">
<stop stop-color="#EF8080"/>
<stop offset="1" stop-color="#F0145A"/>
</linearGradient>
<linearGradient id="paint1_linear_22728_7150" x1="32.0001" y1="21.25" x2="32.0001" y2="42.75" gradientUnits="userSpaceOnUse">
<stop stop-color="#EF8080"/>
<stop offset="1" stop-color="#F0145A"/>
</linearGradient>
<clipPath id="clip0_22728_7150">
<rect width="64" height="64" fill="white"/>
</clipPath>
</defs>
</symbol>

 <symbol id="services-4" width="64" height="64" viewBox="0 0 64 64" fill="none">
<path d="M42.0057 56H23.0057V62H42.0057V56Z" fill="black"/>
<path d="M42.0057 56H23.0057V62H42.0057V56Z" fill="url(#paint0_linear_22728_7167)"/>
<path d="M15.1727 2.45168L1.73761 15.8867L5.27315 19.4223L18.7082 5.98722L15.1727 2.45168Z" fill="black"/>
<path d="M15.1727 2.45168L1.73761 15.8867L5.27315 19.4223L18.7082 5.98722L15.1727 2.45168Z" fill="url(#paint1_linear_22728_7167)"/>
<path d="M49.1127 2.3219L45.5771 5.85742L59.0122 19.2925L62.5477 15.757L49.1127 2.3219Z" fill="black"/>
<path d="M49.1127 2.3219L45.5771 5.85742L59.0122 19.2925L62.5477 15.757L49.1127 2.3219Z" fill="url(#paint2_linear_22728_7167)"/>
<path d="M44.5563 9.70648L41.865 9.59241C41.089 9.48286 40.2981 9.55517 39.5548 9.80362C38.8115 10.0521 38.1361 10.4699 37.5819 11.024L32.0774 16.5285L26.3239 10.775C25.8243 10.2869 25.2011 9.94433 24.5213 9.78417C23.8415 9.624 23.1309 9.6523 22.466 9.86603C21.8388 10.0568 21.1715 10.0735 20.5355 9.91444C19.8994 9.75537 19.3186 9.42646 18.855 8.96288L18.0011 8.109L7.39447 18.7156L9.12247 20.4436L9.00839 23.1348C8.89885 23.9108 8.97115 24.7017 9.2196 25.445C9.46805 26.1884 9.88584 26.8638 10.44 27.418L20.0524 37.0304C20.1809 35.7686 20.7855 34.6032 21.7431 33.7715L18.7482 30.7765L19.4553 30.0695L22.5835 33.1977C23.0269 32.9452 23.5067 32.7629 24.0059 32.6571V28.9632L22.2837 27.241L22.9908 26.5339L24.0059 27.5489V22.1991C23.9947 21.3148 24.3086 20.4572 24.8878 19.789C25.4671 19.1208 26.2715 18.6885 27.1484 18.5741C27.4792 18.542 27.8127 18.5571 28.1392 18.6189L26.9097 17.3894L27.6169 16.6823L29.413 18.4785C29.7311 17.8621 30.2232 17.3527 30.8283 17.0135C31.4333 16.6742 32.1246 16.5201 32.8164 16.5702C33.6513 16.6677 34.4258 17.0542 35.0056 17.6628C35.5854 18.2713 35.9341 19.0636 35.9912 19.9022C36.5595 19.632 37.1893 19.5175 37.8164 19.5702C38.7075 19.6768 39.5272 20.1107 40.1165 20.7875C40.7059 21.4644 41.0228 22.336 41.0058 23.2333V26.6571C41.9159 26.8472 42.755 27.287 43.4291 27.9274C44.1031 28.5677 44.5855 29.3832 44.8219 30.2823L47.6105 27.4938L48.3176 28.2009L45.0023 31.5162C45.0024 31.5299 45.0059 31.5427 45.0059 31.5565V34.8766C45.9043 34.7826 46.7436 34.3844 47.3848 33.7481L54.2249 26.908C54.713 26.4084 55.0556 25.7852 55.2157 25.1054C55.3759 24.4256 55.3475 23.715 55.1338 23.0501C54.943 22.4228 54.9263 21.7555 55.0854 21.1195C55.2445 20.4835 55.5734 19.9026 56.037 19.439L56.8909 18.5851L46.2843 7.97852L44.5563 9.70648Z" fill="black"/>
<path d="M44.5563 9.70648L41.865 9.59241C41.089 9.48286 40.2981 9.55517 39.5548 9.80362C38.8115 10.0521 38.1361 10.4699 37.5819 11.024L32.0774 16.5285L26.3239 10.775C25.8243 10.2869 25.2011 9.94433 24.5213 9.78417C23.8415 9.624 23.1309 9.6523 22.466 9.86603C21.8388 10.0568 21.1715 10.0735 20.5355 9.91444C19.8994 9.75537 19.3186 9.42646 18.855 8.96288L18.0011 8.109L7.39447 18.7156L9.12247 20.4436L9.00839 23.1348C8.89885 23.9108 8.97115 24.7017 9.2196 25.445C9.46805 26.1884 9.88584 26.8638 10.44 27.418L20.0524 37.0304C20.1809 35.7686 20.7855 34.6032 21.7431 33.7715L18.7482 30.7765L19.4553 30.0695L22.5835 33.1977C23.0269 32.9452 23.5067 32.7629 24.0059 32.6571V28.9632L22.2837 27.241L22.9908 26.5339L24.0059 27.5489V22.1991C23.9947 21.3148 24.3086 20.4572 24.8878 19.789C25.4671 19.1208 26.2715 18.6885 27.1484 18.5741C27.4792 18.542 27.8127 18.5571 28.1392 18.6189L26.9097 17.3894L27.6169 16.6823L29.413 18.4785C29.7311 17.8621 30.2232 17.3527 30.8283 17.0135C31.4333 16.6742 32.1246 16.5201 32.8164 16.5702C33.6513 16.6677 34.4258 17.0542 35.0056 17.6628C35.5854 18.2713 35.9341 19.0636 35.9912 19.9022C36.5595 19.632 37.1893 19.5175 37.8164 19.5702C38.7075 19.6768 39.5272 20.1107 40.1165 20.7875C40.7059 21.4644 41.0228 22.336 41.0058 23.2333V26.6571C41.9159 26.8472 42.755 27.287 43.4291 27.9274C44.1031 28.5677 44.5855 29.3832 44.8219 30.2823L47.6105 27.4938L48.3176 28.2009L45.0023 31.5162C45.0024 31.5299 45.0059 31.5427 45.0059 31.5565V34.8766C45.9043 34.7826 46.7436 34.3844 47.3848 33.7481L54.2249 26.908C54.713 26.4084 55.0556 25.7852 55.2157 25.1054C55.3759 24.4256 55.3475 23.715 55.1338 23.0501C54.943 22.4228 54.9263 21.7555 55.0854 21.1195C55.2445 20.4835 55.5734 19.9026 56.037 19.439L56.8909 18.5851L46.2843 7.97852L44.5563 9.70648Z" fill="url(#paint3_linear_22728_7167)"/>
<path d="M29.8804 21.6901C29.8044 21.0405 29.476 20.4468 28.966 20.0373C28.4559 19.6278 27.8053 19.4353 27.1546 19.5015C26.5234 19.5886 25.9463 19.9046 25.5329 20.3894C25.1194 20.8742 24.8986 21.4941 24.9124 22.1311V33.4885C23.8515 33.4885 22.8341 33.9099 22.0839 34.66C21.3338 35.4102 20.9124 36.4276 20.9124 37.4885V47.1619C20.9205 47.8603 21.1189 48.5432 21.4864 49.1371C21.8538 49.7311 22.3763 50.2135 22.9976 50.5325C23.576 50.8412 24.0597 51.3012 24.3969 51.8634C24.7342 52.4256 24.9123 53.0689 24.9124 53.7245V54.9321H39.9124V52.4885L41.896 50.6661C42.5222 50.1948 43.0303 49.5844 43.3803 48.8831C43.7302 48.1818 43.9123 47.4088 43.9124 46.6251V31.4885C43.9124 30.4276 43.4909 29.4102 42.7408 28.66C41.9906 27.9099 40.9732 27.4885 39.9124 27.4885V23.1659C39.9293 22.5187 39.7062 21.888 39.286 21.3955C38.8657 20.903 38.2781 20.5834 37.6362 20.4983C37.0063 20.4426 36.3787 20.6285 35.8807 21.0183C35.3826 21.408 35.0513 21.9725 34.9539 22.5974H35.4124V38.0407H34.4124V22.5974H34.9124V20.1659C34.9293 19.5187 34.7062 18.888 34.286 18.3955C33.8657 17.903 33.2781 17.5834 32.6362 17.4983C32.2904 17.4673 31.942 17.5086 31.613 17.6196C31.2841 17.7306 30.9819 17.909 30.7256 18.1432C30.4694 18.3775 30.2647 18.6625 30.1247 18.9802C29.9847 19.2979 29.9124 19.6413 29.9124 19.9885V21.6901H30.4124V37.1335H29.4124V21.6901H29.8804ZM25.3115 42.0407H24.3115V34.0407H25.3115V42.0407ZM39.4124 27.799H40.4124V38.2423H39.4124V27.799Z" fill="black"/>
<path d="M29.8804 21.6901C29.8044 21.0405 29.476 20.4468 28.966 20.0373C28.4559 19.6278 27.8053 19.4353 27.1546 19.5015C26.5234 19.5886 25.9463 19.9046 25.5329 20.3894C25.1194 20.8742 24.8986 21.4941 24.9124 22.1311V33.4885C23.8515 33.4885 22.8341 33.9099 22.0839 34.66C21.3338 35.4102 20.9124 36.4276 20.9124 37.4885V47.1619C20.9205 47.8603 21.1189 48.5432 21.4864 49.1371C21.8538 49.7311 22.3763 50.2135 22.9976 50.5325C23.576 50.8412 24.0597 51.3012 24.3969 51.8634C24.7342 52.4256 24.9123 53.0689 24.9124 53.7245V54.9321H39.9124V52.4885L41.896 50.6661C42.5222 50.1948 43.0303 49.5844 43.3803 48.8831C43.7302 48.1818 43.9123 47.4088 43.9124 46.6251V31.4885C43.9124 30.4276 43.4909 29.4102 42.7408 28.66C41.9906 27.9099 40.9732 27.4885 39.9124 27.4885V23.1659C39.9293 22.5187 39.7062 21.888 39.286 21.3955C38.8657 20.903 38.2781 20.5834 37.6362 20.4983C37.0063 20.4426 36.3787 20.6285 35.8807 21.0183C35.3826 21.408 35.0513 21.9725 34.9539 22.5974H35.4124V38.0407H34.4124V22.5974H34.9124V20.1659C34.9293 19.5187 34.7062 18.888 34.286 18.3955C33.8657 17.903 33.2781 17.5834 32.6362 17.4983C32.2904 17.4673 31.942 17.5086 31.613 17.6196C31.2841 17.7306 30.9819 17.909 30.7256 18.1432C30.4694 18.3775 30.2647 18.6625 30.1247 18.9802C29.9847 19.2979 29.9124 19.6413 29.9124 19.9885V21.6901H30.4124V37.1335H29.4124V21.6901H29.8804ZM25.3115 42.0407H24.3115V34.0407H25.3115V42.0407ZM39.4124 27.799H40.4124V38.2423H39.4124V27.799Z" fill="url(#paint4_linear_22728_7167)"/>
<defs>
<linearGradient id="paint0_linear_22728_7167" x1="32.5057" y1="56" x2="32.5057" y2="62" gradientUnits="userSpaceOnUse">
<stop stop-color="#EF8080"/>
<stop offset="1" stop-color="#F0145A"/>
</linearGradient>
<linearGradient id="paint1_linear_22728_7167" x1="8.45513" y1="9.1692" x2="11.9907" y2="12.7047" gradientUnits="userSpaceOnUse">
<stop stop-color="#EF8080"/>
<stop offset="1" stop-color="#F0145A"/>
</linearGradient>
<linearGradient id="paint2_linear_22728_7167" x1="47.3449" y1="4.08966" x2="60.78" y2="17.5247" gradientUnits="userSpaceOnUse">
<stop stop-color="#EF8080"/>
<stop offset="1" stop-color="#F0145A"/>
</linearGradient>
<linearGradient id="paint3_linear_22728_7167" x1="32.1427" y1="7.97852" x2="32.1427" y2="37.0304" gradientUnits="userSpaceOnUse">
<stop stop-color="#EF8080"/>
<stop offset="1" stop-color="#F0145A"/>
</linearGradient>
<linearGradient id="paint4_linear_22728_7167" x1="32.4124" y1="17.4883" x2="32.4124" y2="54.9321" gradientUnits="userSpaceOnUse">
<stop stop-color="#EF8080"/>
<stop offset="1" stop-color="#F0145A"/>
</linearGradient>
</defs>
</symbol>


<symbol id="services-5" width="697" height="799" viewBox="0 0 697 799" fill="none">
<g clip-path="url(#clip0_22728_11332)">
<path fill-rule="evenodd" clip-rule="evenodd" d="M245.112 340H432.082C485.793 340 530.618 362.912 558.49 401.63C586.34 440.35 587.199 504.956 570.958 555.498L550.194 620.023C541.522 646.966 500.918 774.384 493 799H391C391 799 392.559 800.366 477.767 535.5C485.29 512.126 489.586 474.185 477.767 457.777C465.968 441.37 446.06 431.66 419.718 431.66H266.886C236.876 431.66 210.283 451.178 200.999 480.005L245.112 340Z" fill="url(#paint0_linear_22728_11332)"/>
<path fill-rule="evenodd" clip-rule="evenodd" d="M99.3445 799H-0.369385C84.4982 532.509 170.329 266.331 255.698 0H355.276C354.856 1.33198 354.431 2.6675 353.999 4.00646C215.866 429.03 262.985 285.497 99.3445 799Z" fill="#F0145A"/>
</g>
<defs>
<linearGradient id="paint0_linear_22728_11332" x1="521.823" y1="798.999" x2="268.503" y2="516.696" gradientUnits="userSpaceOnUse">
<stop stop-color="#F0145A"/>
<stop offset="1" stop-color="#693264"/>
</linearGradient>
<clipPath id="clip0_22728_11332">
<rect width="697" height="799" fill="white"/>
</clipPath>
</defs>
</symbol>


 <symbol id="services-6" width="64" height="64" viewBox="0 0 64 64" fill="none">
<path d="M40.352 20.389C41.084 21.121 42.27 21.123 43.002 20.389L45.61 17.781C46.341 17.049 46.339 15.863 45.61 15.13L39.027 8.549C38.297 7.817 37.111 7.817 36.379 8.549L33.77 11.157C33.04 11.889 33.04 13.075 33.77 13.805L40.352 20.389Z" fill="url(#paint0_linear_22728_7169)"/>
<path d="M24.766 36.2672C25.497 36.9962 26.683 36.9962 27.414 36.2672L30.023 33.6572C30.755 32.9272 30.755 31.7402 30.023 31.0082L23.44 24.4252C22.709 23.6952 21.523 23.6932 20.791 24.4252L18.183 27.0332C17.451 27.7652 17.453 28.9512 18.183 29.6832L24.766 36.2672Z" fill="url(#paint1_linear_22728_7169)"/>
<path d="M54.648 36.8931L52.001 34.2431C51.267 33.5131 50.084 33.5131 49.353 34.2431L48.192 35.4031L36.987 24.1961L39.414 21.7681L32.681 15.0371L30.253 17.4651L27.161 20.5551L24.787 22.9291L31.519 29.6621L33.896 27.2891L45.099 38.4941L44.051 39.5431C43.319 40.2721 43.317 41.4591 44.051 42.1911L46.698 44.8391C47.432 45.5731 48.617 45.5731 49.348 44.8391L54.647 39.5421C55.38 38.8091 55.38 37.6251 54.648 36.8931Z" fill="url(#paint2_linear_22728_7169)"/>
<path d="M35.077 44.9425C35.077 43.7435 34.105 42.7695 32.904 42.7695H15.936C14.736 42.7695 13.763 43.7435 13.763 44.9425V48.4695H9V55.8585H39.558V48.4695H35.077V44.9425Z" fill="url(#paint3_linear_22728_7169)"/>
</symbol>

</svg>



























